<?xml version="1.0" encoding="UTF-8"?>
<svg id="Calque_1" xmlns="http://www.w3.org/2000/svg" version="1.1" viewBox="0 0 800 800">
  <!-- Generator: Adobe Illustrator 30.1.0, SVG Export Plug-In . SVG Version: 2.1.1 Build 136)  -->
  <defs>
    <style>
      .st0 {
        fill: #ffd207;
      }
    </style>
  </defs>
  <rect class="st0" x="-.5" y=".4" width="800" height="800"/>
  <g>
    <polygon points="292.1 332.7 319.7 408 264.9 408 292.1 332.7 266.1 332.7 214.2 468.7 242.9 468.7 257.2 429.1 327.4 429.1 341.9 468.7 370.6 468.7 319.8 332.7 292.1 332.7"/>
    <polygon points="484.5 443.3 450.3 332.7 427.1 332.7 427 332.7 398.3 332.7 398.3 468.7 427.1 468.7 427.1 333 468 468.7 500 468.7 542.1 332.7 517.2 332.7 484.5 443.3"/>
    <polygon points="722.8 468.7 751.5 468.7 700.7 332.7 673 332.7 700.6 408 645.8 408 673 332.7 647 332.7 595.1 468.7 623.8 468.7 638.1 429.1 708.3 429.1 722.8 468.7"/>
    <rect x="59.6" y="332.7" width="131.9" height="22.7"/>
    <rect x="542.1" y="332.7" width="28.8" height="136"/>
    <polygon points="191.5 382.7 191.5 355.4 56.6 447.6 56.6 468.8 193.8 468.8 193.8 447.6 97.7 447.6 191.5 382.7"/>
  </g>
</svg>