<?xml version="1.0" encoding="UTF-8"?>
<svg id="Calque_1" xmlns="http://www.w3.org/2000/svg" version="1.1" viewBox="0 0 800 600">
  <!-- Generator: Adobe Illustrator 29.2.1, SVG Export Plug-In . SVG Version: 2.1.0 Build 116)  -->
  <defs>
    <style>
      .st0 {
        fill: #1d1d1b;
      }
    </style>
  </defs>
  <polyline class="st0" points="340.9 367.7 369.6 367.7 318.8 231.7 291.1 231.7 318.7 307 263.9 307 291.1 231.7 265.1 231.7 213.2 367.7 241.9 367.7 256.2 328.1 326.4 328.1"/>
  <rect class="st0" x="397.3" y="231.7" width="28.8" height="136"/>
  <polygon class="st0" points="483.5 342.2 449.2 231.7 426 231.7 466.9 367.7 499 367.7 541 231.7 516.2 231.7 483.5 342.2"/>
  <polyline class="st0" points="721.8 367.7 750.5 367.7 699.6 231.7 672 231.7 699.6 307 644.7 307 672 231.7 646 231.7 594 367.7 622.8 367.7 637.1 328.1 707.3 328.1"/>
  <rect class="st0" x="58.6" y="231.7" width="131.9" height="22.7"/>
  <rect class="st0" x="541" y="231.7" width="28.8" height="136"/>
  <polygon class="st0" points="190.5 281.7 190.5 254.3 55.6 346.5 55.6 367.7 192.7 367.7 192.7 346.5 96.7 346.5 190.5 281.7"/>
</svg>